<svg width="16" height="17" viewBox="0 0 16 17" fill="none" xmlns="http://www.w3.org/2000/svg">
<path d="M15.9986 15.3388L15.3945 4.09678C15.3805 3.83555 15.0944 3.63087 14.7431 3.63087H12.0169V3.61522C12.0169 1.9664 10.2149 0.625 8 0.625C5.78506 0.625 3.98308 1.9664 3.98308 3.61522V3.63087H1.25692C0.905664 3.63087 0.619559 3.83552 0.605468 4.09678L0.0013742 15.3388C-0.0168807 15.6782 0.147245 16.0001 0.463425 16.2451C0.779646 16.4901 1.20514 16.625 1.66152 16.625H14.3385C14.7949 16.625 15.2204 16.4901 15.5366 16.2451C15.8528 16.0001 16.0169 15.6782 15.9986 15.3388ZM4.61401 3.61522C4.61401 2.22538 6.13295 1.09467 8 1.09467C9.86705 1.09467 11.386 2.22538 11.386 3.61522V3.63087H4.61401V3.61522ZM15.0816 15.9197C14.8855 16.0716 14.6216 16.1553 14.3385 16.1553H1.66152C1.37844 16.1553 1.11454 16.0717 0.918409 15.9197C0.722274 15.7678 0.620484 15.5681 0.631841 15.3576L1.23589 4.11557C1.23635 4.10711 1.24557 4.10054 1.25692 4.10054H3.98308V5.61913C3.98308 5.74882 4.12433 5.85396 4.29855 5.85396C4.47277 5.85396 4.61401 5.74882 4.61401 5.61913V4.10054H11.386V5.61913C11.386 5.74882 11.5272 5.85396 11.7015 5.85396C11.8757 5.85396 12.0169 5.74882 12.0169 5.61913V4.10054H14.7431C14.7544 4.10054 14.7636 4.10711 14.7641 4.11557L15.3682 15.3576C15.3795 15.5681 15.2777 15.7677 15.0816 15.9197Z" fill="black"/>
</svg>
