<svg width="16" height="17" viewBox="0 0 16 17" fill="none" xmlns="http://www.w3.org/2000/svg">
<path d="M11.8333 0.625C10.0586 0.625 8.59278 2.42329 8 3.27202C7.40722 2.42329 5.94141 0.625 4.16666 0.625C1.86916 0.625 0 2.92934 0 5.76137C0 7.30647 0.562187 8.74643 1.54622 9.7319C1.56053 9.7589 1.57812 9.78375 1.59862 9.80611L7.76466 16.5188C7.82975 16.5895 7.91472 16.625 8 16.625C8.08528 16.625 8.17056 16.5895 8.23569 16.5185L14.6068 9.57068L14.6725 9.50107C14.7246 9.44744 14.7761 9.3931 14.8337 9.32352C14.8578 9.29761 14.8776 9.26846 14.8929 9.23686C15.6074 8.28232 16 7.05113 16 5.76137C16 2.92934 14.1309 0.625 11.8333 0.625ZM14.3382 8.82777C14.3291 8.8395 14.3206 8.85191 14.3132 8.86469C14.2819 8.90376 14.2477 8.93819 14.2139 8.97337L7.99969 15.7475L2.14584 9.37428C2.12697 9.33378 2.10059 9.29686 2.06838 9.26598C1.17741 8.41725 0.666656 7.1399 0.666656 5.76137C0.666656 3.33025 2.23666 1.35229 4.16666 1.35229C6.07487 1.35229 7.70344 4.0675 7.71972 4.09484C7.84278 4.30221 8.15722 4.30221 8.28028 4.09484C8.29656 4.0675 9.92513 1.35229 11.8333 1.35229C13.7633 1.35229 15.3333 3.33028 15.3333 5.76137C15.3333 6.90696 14.9798 7.99609 14.3382 8.82777Z" fill="black"/>
</svg>
