<svg width="16" height="17" viewBox="0 0 16 17" fill="none" xmlns="http://www.w3.org/2000/svg">
<path d="M15.9126 16.1136L11.2509 11.4455C12.4399 10.2973 13.1766 8.71442 13.1766 6.96869C13.1766 3.4706 10.2212 0.625 6.58828 0.625C2.95531 0.625 0 3.4706 0 6.96869C0 10.4668 2.95531 13.3124 6.58828 13.3124C8.18295 13.3124 9.64649 12.7635 10.7872 11.8527L15.4602 16.5323C15.5217 16.5942 15.6039 16.625 15.6864 16.625C15.7648 16.625 15.8429 16.5969 15.9038 16.5407C16.0286 16.425 16.0324 16.2338 15.9126 16.1136ZM6.58828 12.7082C3.30135 12.7082 0.627455 10.1336 0.627455 6.96869C0.627455 3.80379 3.30135 1.22916 6.58828 1.22916C9.8752 1.22916 12.5491 3.80379 12.5491 6.96869C12.5491 10.1336 9.87488 12.7082 6.58828 12.7082Z" fill="black"/>
</svg>
